<?xml version="1.0" standalone="no"?>
<!DOCTYPE svg PUBLIC "-//W3C//DTD SVG 20010904//EN"
 "http://www.w3.org/TR/2001/REC-SVG-20010904/DTD/svg10.dtd">
<svg version="1.0" xmlns="http://www.w3.org/2000/svg"
 width="300.000000pt" height="360.000000pt" viewBox="0 0 300.000000 360.000000"
 preserveAspectRatio="xMidYMid meet">
<metadata>
Created by potrace 1.10, written by Peter Selinger 2001-2011
</metadata>
<g transform="translate(0.000000,360.000000) scale(0.100000,-0.100000)"
fill="#fff" stroke="none">
<path d="M1605 3141 c-68 -20 -146 -59 -189 -94 l-29 -23 -40 44 c-33 35 -101
82 -120 82 -2 0 8 -24 24 -54 15 -30 32 -87 39 -125 12 -70 23 -88 35 -53 3 9
17 30 31 46 26 29 27 29 41 10 7 -10 23 -50 34 -89 45 -153 62 -202 88 -245
14 -25 34 -81 43 -125 10 -44 34 -113 54 -154 29 -63 53 -93 143 -181 126
-122 156 -166 180 -261 10 -39 21 -71 26 -72 4 -1 14 14 20 33 l12 35 5 -41
c3 -22 22 -76 43 -120 20 -43 42 -108 49 -144 l13 -65 36 75 c20 41 44 104 54
140 18 71 21 180 4 220 -8 19 -9 7 -5 -50 7 -84 -11 -174 -54 -274 l-26 -58
-16 58 c-10 33 -32 90 -51 129 -28 58 -34 84 -37 157 -3 48 -8 85 -13 82 -5
-3 -9 -22 -9 -42 0 -20 -5 -55 -11 -77 l-12 -40 -13 57 c-21 92 -48 132 -174
263 -124 129 -153 173 -189 289 -30 98 -28 102 29 57 79 -62 148 -66 207 -12
74 67 116 177 116 302 1 122 -32 153 -135 129 -147 -34 -241 -134 -256 -274
l-7 -61 -27 60 c-15 33 -39 103 -54 155 -15 52 -35 112 -46 134 l-19 38 21 23
c55 58 209 115 313 115 63 0 117 -9 117 -20 0 -4 -25 -24 -55 -44 -70 -46 -71
-59 -2 -49 28 4 86 7 127 7 87 1 153 -26 229 -92 l44 -38 -101 0 c-57 0 -107
-5 -112 -10 -8 -8 10 -23 56 -50 75 -44 144 -115 178 -184 28 -54 60 -149 53
-156 -2 -3 -21 6 -42 20 -66 45 -215 90 -215 65 0 -6 26 -41 58 -78 173 -198
222 -307 222 -496 l0 -73 -55 53 c-30 30 -55 59 -55 66 0 37 -78 131 -155 186
-27 20 -67 52 -87 72 -21 19 -40 32 -43 30 -7 -8 42 -128 70 -170 15 -23 63
-63 127 -104 115 -75 165 -118 179 -154 19 -49 33 -6 33 102 0 78 -6 120 -23
177 -38 122 -64 165 -183 302 -32 36 -58 69 -58 72 0 11 108 -28 172 -62 37
-20 70 -33 73 -30 11 10 -26 132 -58 192 -37 70 -98 134 -166 177 -28 17 -51
33 -51 36 0 3 47 3 105 0 l106 -6 -21 29 c-28 39 -81 82 -138 111 -42 21 -60
24 -168 24 l-122 0 41 27 c61 40 65 55 23 73 -47 20 -156 18 -231 -4z m-285
-67 c28 -26 50 -52 50 -58 -1 -6 -14 -26 -29 -44 l-28 -33 -13 63 c-6 34 -18
75 -26 90 -20 39 -11 35 46 -18z m583 -149 c35 -34 32 -142 -5 -263 -14 -47
-31 -76 -67 -113 -42 -44 -52 -49 -90 -49 -49 0 -69 9 -128 57 -42 34 -43 35
-43 96 1 128 90 238 220 273 62 17 96 17 113 -1z m117 -693 c19 -11 49 -36 66
-54 36 -38 88 -118 81 -125 -8 -7 -140 82 -174 118 -18 19 -44 61 -58 94 l-27
60 39 -36 c21 -20 54 -45 73 -57z"/>
<path d="M1150 3103 c0 -35 10 -56 71 -144 10 -13 20 -35 24 -49 l7 -25 -21
28 c-13 15 -44 39 -69 53 -97 55 -122 74 -122 94 0 54 -40 -14 -55 -93 l-7
-36 -39 16 c-22 8 -42 13 -46 10 -7 -8 14 -92 34 -135 18 -38 77 -82 109 -82
22 0 22 1 -6 53 -30 56 -51 135 -32 123 6 -3 46 -11 89 -16 55 -7 83 -16 98
-30 l20 -20 -20 -38 c-17 -31 -38 -46 -140 -97 l-120 -60 -42 -86 c-37 -76
-55 -100 -158 -200 -156 -152 -161 -160 -145 -212 6 -23 24 -54 38 -70 20 -21
23 -30 14 -39 -15 -15 -15 -93 0 -121 7 -12 11 -49 10 -82 -4 -91 26 -142 98
-166 30 -11 80 -19 112 -19 l59 0 -36 -32 c-43 -37 -74 -94 -91 -165 -14 -62
-8 -74 18 -33 19 33 73 70 100 70 14 0 12 -7 -12 -44 -17 -24 -37 -64 -46 -88
-18 -49 -38 -231 -29 -259 12 -38 25 -17 25 41 0 58 1 60 38 85 21 14 65 30
97 36 33 5 68 12 77 15 16 5 15 0 -4 -43 -16 -37 -22 -74 -26 -158 l-4 -110
24 27 c18 21 192 118 212 118 2 0 4 -26 3 -57 0 -32 8 -85 17 -118 20 -70 96
-235 108 -235 4 0 8 15 9 33 0 17 6 48 14 67 l13 35 6 -27 c3 -16 9 -40 12
-55 11 -52 58 -134 99 -172 53 -49 85 -67 85 -48 0 7 -6 19 -12 25 -9 9 -13
48 -13 120 0 101 2 112 32 172 17 36 66 106 108 155 42 50 92 112 112 138 l36
48 21 -63 c13 -39 27 -63 35 -63 9 0 35 39 60 87 42 81 45 93 46 165 0 60 -6
91 -24 136 -26 62 -41 73 -41 28 0 -61 -69 -241 -92 -241 -21 0 -6 115 29 217
45 134 49 220 14 298 -27 60 -60 97 -167 180 -44 35 -95 80 -112 100 -43 48
-83 129 -91 182 -3 24 -10 45 -16 46 -13 3 -44 -119 -44 -180 -1 -29 4 -83 11
-120 18 -107 8 -135 -75 -217 -47 -46 -110 -93 -180 -135 -130 -76 -192 -101
-253 -101 -61 0 -55 6 97 111 133 91 161 119 197 199 35 75 39 140 13 214 -25
70 -27 136 -6 180 8 17 35 56 61 86 59 71 84 121 84 165 0 107 -97 183 -198
155 -46 -12 -117 -69 -127 -101 -4 -11 -20 -26 -38 -35 -17 -9 -39 -26 -49
-38 -27 -32 -58 -122 -58 -167 0 -52 16 -87 83 -187 71 -103 75 -142 25 -198
-44 -47 -92 -57 -179 -39 -77 16 -184 66 -199 94 -27 52 6 101 89 131 95 35
134 86 114 146 -13 39 -53 65 -107 71 -57 7 -145 -33 -178 -80 -22 -32 -22
-32 20 6 53 47 79 57 148 57 68 0 104 -29 104 -83 0 -43 -25 -66 -112 -105
-72 -32 -104 -72 -95 -118 2 -13 0 -24 -4 -24 -12 0 -11 37 2 83 9 33 8 41 -8
53 -16 12 -13 13 28 14 45 0 69 13 69 37 0 8 -11 13 -27 12 -16 -1 -42 1 -59
5 -17 4 -43 2 -59 -4 -31 -12 -45 -2 -45 32 0 10 65 82 144 160 127 127 145
149 161 198 10 30 27 66 39 79 11 13 66 45 121 71 114 53 155 92 155 146 0 42
-28 58 -115 68 -100 12 -106 15 -99 45 3 14 10 41 16 59 l10 33 18 -24 c11
-13 51 -41 90 -61 39 -21 80 -50 92 -67 57 -77 51 7 -7 96 -73 110 -76 163 -7
101 23 -21 42 -34 42 -28 0 14 -68 72 -85 72 -11 0 -15 -11 -15 -37z m-197
-174 c19 -9 26 -21 31 -56 3 -25 15 -61 27 -79 24 -40 12 -44 -29 -9 -32 27
-59 75 -68 124 -7 34 0 38 39 20z m405 -329 c42 -26 72 -76 72 -120 0 -44 -24
-92 -78 -156 -50 -60 -81 -127 -82 -176 0 -20 9 -65 20 -100 24 -76 25 -108 5
-176 -22 -74 -79 -139 -186 -212 -52 -35 -112 -81 -134 -101 -22 -20 -54 -40
-72 -43 -18 -4 -49 -19 -69 -32 -27 -19 -35 -21 -30 -9 3 9 6 22 6 30 0 24 81
122 121 144 21 12 39 23 39 25 0 1 -35 2 -79 2 -54 -1 -83 4 -95 13 -14 12
-19 12 -25 2 -6 -9 -17 -5 -41 16 -19 15 -36 26 -39 23 -3 -3 -14 19 -24 49
-20 59 -16 100 11 124 16 15 25 13 107 -20 164 -66 282 -55 335 32 34 55 23
101 -45 201 -92 133 -100 183 -49 286 23 46 60 82 75 72 4 -2 10 0 14 6 7 12
51 12 80 1 19 -7 18 -9 -5 -21 -14 -8 -41 -16 -61 -20 -33 -6 -36 -5 -31 14 4
21 4 21 -11 1 -24 -30 -21 -35 25 -35 46 0 132 43 125 63 -2 7 -28 16 -57 22
l-53 10 28 33 c57 68 141 90 203 52z m235 -498 c37 -62 92 -118 192 -194 154
-118 186 -231 119 -423 -36 -104 -44 -159 -33 -218 10 -55 21 -38 -145 -236
-98 -117 -145 -212 -153 -307 -3 -39 -1 -86 6 -108 6 -22 8 -42 6 -45 -3 -2
-21 11 -41 30 -50 48 -95 144 -101 217 -5 54 -3 64 24 103 42 62 45 69 34 69
-15 0 -42 -31 -35 -41 3 -5 0 -8 -6 -7 -12 3 -75 -130 -82 -174 -6 -33 -64 93
-90 196 -27 108 -20 157 30 211 43 45 76 94 69 102 -6 6 -89 -82 -100 -107 -5
-9 -57 -41 -115 -70 -59 -28 -115 -59 -124 -68 -22 -18 -21 -19 -9 93 11 96
42 175 69 175 21 0 102 50 102 63 0 5 -12 0 -27 -11 -43 -29 -73 -44 -73 -34
0 5 23 21 50 36 28 15 50 24 50 20 0 -3 7 -1 15 6 8 7 15 18 15 26 0 17 -118
-48 -145 -80 -15 -18 -35 -26 -75 -31 -71 -8 -118 -23 -152 -47 l-28 -19 0 35
c0 41 32 133 68 192 l25 42 72 4 c64 4 85 11 171 57 206 110 317 200 349 285
15 38 16 54 6 109 -14 83 -14 192 1 259 l12 53 8 -55 c5 -32 22 -77 41 -108z
m-848 38 c17 0 17 -2 5 -10 -8 -5 -29 -7 -46 -4 -40 7 -66 -19 -36 -37 11 -7
17 -19 15 -29 -4 -14 -12 -9 -44 25 -36 39 -50 63 -31 52 4 -3 16 -1 27 4 11
5 36 6 55 4 19 -3 44 -5 55 -5z m-79 -145 c6 -35 -2 -92 -13 -82 -10 10 -23
96 -17 112 9 22 22 9 30 -30z m1359 -645 c0 -68 -4 -83 -43 -164 -23 -49 -45
-87 -47 -84 -3 3 -13 28 -23 57 l-18 52 39 77 c21 42 43 106 50 140 l12 64 14
-34 c9 -19 15 -65 16 -108z"/>
</g>
</svg>
